<?xml version="1.0" encoding="UTF-8" standalone="no"?>
<!-- Created with Inkscape (http://www.inkscape.org/) -->

<svg
   xmlns:dc="http://purl.org/dc/elements/1.1/"
   xmlns:cc="http://creativecommons.org/ns#"
   xmlns:rdf="http://www.w3.org/1999/02/22-rdf-syntax-ns#"
   xmlns:svg="http://www.w3.org/2000/svg"
   xmlns="http://www.w3.org/2000/svg"
   xmlns:sodipodi="http://sodipodi.sourceforge.net/DTD/sodipodi-0.dtd"
   xmlns:inkscape="http://www.inkscape.org/namespaces/inkscape"
   version="1.1"
   id="svg1007"
   width="94.720001"
   height="208.64"
   viewBox="0 0 94.720001 208.64"
   sodipodi:docname="frame-left.svg"
   inkscape:version="0.92.4 (5da689c313, 2019-01-14)"
   inkscape:export-filename="F:\Projects\quran-web\src\assets\frame-left.png"
   inkscape:export-xdpi="96"
   inkscape:export-ydpi="96">
  <metadata
     id="metadata1013">
    <rdf:RDF>
      <cc:Work
         rdf:about="">
        <dc:format>image/svg+xml</dc:format>
        <dc:type
           rdf:resource="http://purl.org/dc/dcmitype/StillImage" />
        <dc:title></dc:title>
      </cc:Work>
    </rdf:RDF>
  </metadata>
  <defs
     id="defs1011" />
  <sodipodi:namedview
     pagecolor="#ffffff"
     bordercolor="#666666"
     borderopacity="1"
     objecttolerance="10"
     gridtolerance="10"
     guidetolerance="10"
     inkscape:pageopacity="0"
     inkscape:pageshadow="2"
     inkscape:window-width="1366"
     inkscape:window-height="715"
     id="namedview1009"
     showgrid="false"
     inkscape:zoom="1.8199595"
     inkscape:cx="64.629528"
     inkscape:cy="73.396314"
     inkscape:window-x="-8"
     inkscape:window-y="22"
     inkscape:window-maximized="1"
     inkscape:current-layer="svg1007" />
  <path
     style="fill:#70fd99;fill-opacity:1;stroke-width:0.63999999"
     d="M 90.331071,206.19831 C 84.08546,202.41687 80.09557,199.24398 76.14752,194.9191 62.39873,179.85805 60.21664,161.83389 69.66137,141.34329 l 1.9907,-4.31888 -5.0781,-4.98637 c -5.59633,-5.49524 -7.88708,-9.42608 -7.88708,-13.53393 0,-9.36263 10.93271,-15.24414 19.03182,-10.23861 7.592581,4.69247 7.018091,15.5188 -1.19663,22.55028 -4.42969,3.79166 -5.11747,2.82373 -1.42012,-1.99857 6.30935,-8.22904 6.23866,-15.16038 -0.18197,-17.8431 -4.17183,-1.74309 -8.3609,-0.71593 -11.05659,2.71108 -0.97815,1.24351 -1.33651,2.61979 -1.33651,5.13279 0,4.20507 1.4324,5.99369 4.8,5.99369 2.61782,0 2.90108,-0.77333 0.65766,-1.79551 -3.47718,-1.5843 -2.5186,-6.90288 1.44923,-8.04083 6.11971,-1.75512 9.46231,6.3656 4.61527,11.21263 -1.44085,1.44086 -2.40505,1.82458 -4.59293,1.82784 l -2.76923,0.004 3.2,2.65663 c 5.98283,4.96693 14.07369,13.65802 15.995671,17.18236 2.76164,5.06398 2.64893,10.09792 -0.43689,19.51275 -2.729331,8.32716 -3.421691,12.73597 -2.515501,16.01795 0.86372,3.12812 3.174311,5.66377 4.305541,4.72493 2.09293,-1.73696 5.81601,0.85883 4.1357,2.88348 -1.52569,1.83835 -4.89195,1.25657 -7.769031,-1.3427 -3.56372,-3.21961 -5.20519,-6.69874 -5.57213,-11.81022 l -0.30484,-4.24656 -2.63926,-0.35392 c -3.03872,-0.4072 -6.15926,-3.34408 -6.15926,-5.79646 0,-2.52502 2.33684,-4.87621 4.84645,-4.87621 3.77094,0 5.80264,3.2439 4.06511,6.49052 -0.61951,1.15755 -0.56044,1.21786 0.58983,0.60225 3.8701,-2.07121 7.089191,-9.18403 6.22977,-13.76513 -0.55322,-2.94907 -2.67094,-5.4878 -4.57761,-5.4878 -1.44715,0 -1.55372,-0.23011 -1.55595,-3.36 -0.003,-3.68132 -1.80939,-7.52 -3.53948,-7.52 -1.3046,0 -3.46604,4.79459 -3.48407,7.72844 -0.0144,2.34327 1.56876,4.42138 4.03325,5.29425 1.90742,0.67558 0.99076,2.59492 -1.53881,3.22202 -1.34386,0.33315 -2.52201,1.12045 -2.8732,1.92 -0.32741,0.74541 -1.16073,1.35605 -1.85182,1.35697 -1.96149,0.003 -2.61257,3.37071 -1.83971,9.51698 1.51863,12.07703 8.57379,23.02818 21.286901,33.04193 4.45148,3.5063 6.5028,5.91935 5.70778,6.71428 -0.12014,0.12013 -1.96256,-0.83757 -4.09426,-2.12823 z M 59.03942,162.17643 c -0.89451,-4.8138 -2.73252,-7.04847 -8.08973,-9.8356 -5.78259,-3.00843 -7.80144,-5.15306 -9.28689,-9.86545 l -1.07918,-3.42355 -3.3467,-0.34541 C 29.85462,137.9445 24.993896,133.68496 18.037353,121.88146 12.776155,112.95454 9.4506734,108.56979 6.6439124,106.85887 l -2.037023,-1.24172 -0.348855,1.43726 c -0.263768,1.08671 -0.810108,1.43726 -2.24,1.43726 H 0.12688944 v -4.16 -4.16 H 2.0468894 c 1.503848,0 1.964327,0.31212 2.124512,1.44 0.112482,0.792 0.491265,1.44 0.84174,1.44 1.656479,0 7.7579786,-7.400696 11.9183776,-14.456164 C 24.921478,75.045624 29.59185,70.745963 37.16953,69.963877 l 3.41409,-0.352365 1.07918,-3.423552 c 1.43356,-4.547796 3.58537,-6.960348 8.30951,-9.316431 5.74432,-2.864877 7.87905,-5.155161 8.75991,-9.398214 0.63991,-3.082449 0.82666,-3.376129 1.46117,-2.297885 1.10517,1.878033 0.84205,9.836561 -0.4033,12.19854 -1.01043,1.916424 -0.99804,2.053664 0.28887,3.2 1.61491,1.43849 3.08793,4.724268 3.08793,6.888044 0,2.174298 -2.77386,5.264429 -5.1527,5.740199 -2.53824,0.507648 -5.58185,-1.028186 -6.09582,-3.075994 -0.80336,-3.200838 1.22387,-6.114547 4.25423,-6.114547 2.40232,0 2.3962,-0.977238 -0.0139,-2.223565 -5.25082,-2.715307 -10.38842,-0.103423 -11.26256,5.725728 -0.64927,4.329658 0.0289,10.974138 1.56676,15.349485 1.58769,4.51728 1.87977,4.855514 2.78938,3.230131 1.73031,-3.091872 6.68159,-7.50752 10.3376,-9.219251 8.27509,-3.874374 10.13245,-2.899277 2.58519,1.357203 -4.67221,2.635027 -9.49813,6.903783 -11.35108,10.040583 l -1.09884,1.860179 2.79881,3.43584 c 1.53935,1.889709 3.96326,4.242794 5.38647,5.229084 2.61214,1.810211 9.37853,4.851321 10.85649,4.879391 1.75827,0.0334 0.64382,1.13924 -1.92,1.90519 -5.98048,1.78669 -11.27262,5.3928 -14.95224,10.1886 -2.11527,2.75693 -2.13109,2.82598 -1.06216,4.63554 1.92576,3.26006 7.42611,8.13367 11.64902,10.32167 7.46357,3.86709 5.22,4.76539 -2.83462,1.13496 -3.62592,-1.6343 -8.59472,-6.07629 -10.39464,-9.29255 -0.91049,-1.62696 -1.1995,-1.29034 -2.80918,3.27199 -2.78772,7.90126 -2.1898,18.07188 1.22012,20.75412 1.9816,1.55874 6.58889,1.67491 8.80622,0.22206 2.18432,-1.43122 1.97181,-2.16639 -0.62623,-2.16639 -3.8088,0 -5.57462,-4.55603 -2.99875,-7.7371 2.24317,-2.77019 8.11342,-1.40216 9.79202,2.28197 0.9629,2.11334 0.15145,5.68673 -1.82463,8.03517 -1.59873,1.89999 -1.62918,2.0831 -0.77454,4.65884 1.04873,3.16067 1.13805,9.84991 0.15444,11.56588 -0.60536,1.05608 -0.74755,0.89813 -1.1523,-1.28 z M 42.35118,126.73167 c 0.78813,-2.64 1.92017,-5.90446 2.51564,-7.25436 l 1.08267,-2.45436 -2.91231,-3.4089 c -6.23078,-7.29321 -15.10366,-8.91894 -17.0181,-3.11814 -0.916159,2.77601 -0.32011,4.50297 1.96138,5.68278 2.47982,1.28236 2.51614,1.26223 2.12053,-1.17564 -0.24219,-1.49244 -0.0255,-2.44854 0.72499,-3.19904 3.85571,-3.85571 9.97778,0.5953 7.26685,5.28331 -0.90186,1.55959 -0.85195,1.72916 0.96826,3.28967 1.38472,1.18717 1.91913,2.21193 1.91913,3.68 0,2.80772 -0.54068,3.09458 -2.26051,1.19931 -0.88759,-0.97813 -2.99865,-2.04469 -5.31282,-2.68419 -7.80191,-2.15596 -11.843485,-6.02975 -10.920106,-10.46674 0.322665,-1.55046 0.01898,-1.85608 -3.590824,-3.6137 -6.648134,-3.23699 -6.656145,-5.0668 -0.03642,-8.32 3.340155,-1.641491 3.857466,-2.123951 3.566262,-3.326008 -1.084854,-4.478176 3.205938,-8.673273 11.040088,-10.793881 2.7909,-0.755463 4.58781,-1.657088 5.42588,-2.722522 1.48083,-1.882566 2.08845,-1.511008 2.08845,1.277088 0,1.468077 -0.53441,2.492839 -1.91913,3.68 -1.82021,1.560512 -1.87012,1.730087 -0.96826,3.289671 1.22574,2.119667 0.58555,4.737209 -1.49144,6.098111 -2.84031,1.86104 -6.89338,-0.265196 -6.686,-3.507487 0.16903,-2.642637 0.079,-2.723456 -1.8952,-1.702528 -3.381705,1.748742 -3.224776,6.118705 0.30273,8.430016 3.51912,2.30582 10.56692,-0.62547 15.00588,-6.241178 l 2.53791,-3.210688 -1.02973,-2.355296 C 44.27063,87.791557 43.0961,84.471032 42.22692,81.708024 l -1.58033,-5.023648 -2.95998,0.443878 c -3.51148,0.52658 -8.00459,2.724378 -10.70277,5.235252 -1.06868,0.994489 -4.70011,5.278995 -8.069845,9.521126 -3.369735,4.242125 -7.371201,8.778118 -8.892147,10.079998 l -2.7653566,2.36704 2.7576686,2.36046 c 1.516718,1.29826 5.978585,6.41026 9.915259,11.36 7.337071,9.22521 10.537551,11.86855 15.997821,13.21292 4.3267,1.06527 4.86621,0.68453 6.42394,-4.53338 z m 14.63044,-19.56898 c 1.8179,-0.84666 4.24127,-1.71805 5.38527,-1.93642 1.144,-0.21838 2.08,-0.62095 2.08,-0.8946 0,-0.27365 -0.936,-0.67622 -2.08,-0.8946 -3.57841,-0.68308 -8.34686,-3.27567 -11.8609,-6.448745 l -3.3809,-3.052851 -3.08405,3.216601 c -5.03034,5.246535 -6.79307,5.855265 -18.33438,6.331495 -5.47214,0.2258 -10.099189,0.65299 -10.28233,0.94932 -0.332398,0.53783 2.347049,0.70772 13.82256,0.87642 7.33135,0.10777 9.93828,1.21787 14.72854,6.27181 l 3.20538,3.38181 3.24777,-3.13043 c 1.78627,-1.72174 4.73514,-3.82315 6.55304,-4.66981 z m 10.46366,-5.40181 c -4.81267,-1.44456 -8.75839,-6.671198 -8.75839,-11.60165 0,-4.107174 2.29054,-8.038489 7.88322,-13.530156 l 5.07424,-4.982599 -2.30659,-5.046016 C 65.37431,57.929838 64.1681,52.59085 64.19822,43.851672 c 0.0188,-5.449196 0.35859,-8.795402 1.16986,-11.52 C 68.00211,23.485447 74.28425,14.456535 82.18087,8.1677696 86.572581,4.6702743 94.000471,-0.08808161 94.417471,0.32892389 95.226661,1.1381167 93.190421,3.5676868 89.036421,6.7493933 83.25851,11.17492 76.44299,18.437187 73.49994,23.304285 c -4.61351,7.629611 -7.16986,17.323233 -6.22682,23.611889 0.41792,2.786945 0.57116,2.990342 1.98547,2.635373 1.24601,-0.312729 1.60582,-0.09291 1.92418,1.175544 0.28517,1.13621 1.03191,1.718413 2.74785,2.142391 3.02975,0.748595 3.07105,2.253983 0.11627,4.238736 -1.78012,1.195723 -2.28057,1.989582 -2.4376,3.86674 -0.26686,3.189924 1.99849,8.332637 3.54356,8.044464 1.65907,-0.309433 3.3719,-4.233593 3.37305,-7.72775 6.4e-4,-2.791488 0.12799,-3.04 1.55454,-3.04 3.39019,0 5.655581,-6.024208 4.2087,-11.191948 -0.81596,-2.914341 -3.72788,-6.919288 -5.86086,-8.060824 -1.15027,-0.615608 -1.20934,-0.555296 -0.58983,0.602254 1.73753,3.246613 -0.29417,6.490518 -4.06511,6.490518 -2.50961,0 -4.84645,-2.351186 -4.84645,-4.876212 0,-2.452374 3.12054,-5.389254 6.15926,-5.796743 l 2.63926,-0.353922 0.30484,-4.246562 c 0.36806,-5.127151 2.00918,-8.591305 5.61214,-11.846357 2.188131,-1.976845 3.046601,-2.358408 4.941531,-2.196343 3.19748,0.273467 4.23741,2.077817 2.17353,3.771242 -1.37776,1.130467 -1.67153,1.161805 -2.96236,0.316018 -1.30982,-0.858226 -1.55187,-0.812296 -2.81719,0.534583 -3.381281,3.599198 -3.212111,8.504635 0.71916,20.854296 2.11466,6.642963 2.49346,8.616479 2.23307,11.634263 -0.43091,4.994215 -2.89809,9.264545 -9.141211,15.822095 l -5.17797,5.438759 3.33571,3.256685 c 1.83463,1.79118 3.94872,4.45831 4.69796,5.92695 1.62113,3.17767 1.83092,8.918534 0.42526,11.636794 -2.54211,4.915912 -9.01104,7.478622 -14.6246,5.793662 z m 7.47471,-4.071651 c 6.37564,-2.663919 6.52257,-9.331803 0.38474,-17.461288 -1.39581,-1.848743 -2.53784,-3.677965 -2.53784,-4.064947 0,-0.767936 -5.08965,3.225984 -5.10846,4.008678 -0.006,0.264 0.95762,0.48 2.14215,0.48 2.83271,0 5.31558,2.028128 6.23348,5.091821 1.50431,5.020934 -3.06419,9.812537 -7.45026,7.814105 -3.34313,-1.523225 -3.68446,-6.504704 -0.54377,-7.935705 1.47753,-0.673203 1.53335,-0.822643 0.57035,-1.52681 -1.35021,-0.987296 -4.55226,0.01133 -5.457,1.701831 -0.99311,1.855641 -0.74659,7.198483 0.40821,8.847187 2.50043,3.569868 7.13121,4.811358 11.3584,3.045128 z"
     id="path1017"
     inkscape:connector-curvature="0" />
</svg>
