<?xml version="1.0" encoding="UTF-8" standalone="no"?>
<!-- Created with Inkscape (http://www.inkscape.org/) -->

<svg
   xmlns:dc="http://purl.org/dc/elements/1.1/"
   xmlns:cc="http://creativecommons.org/ns#"
   xmlns:rdf="http://www.w3.org/1999/02/22-rdf-syntax-ns#"
   xmlns:svg="http://www.w3.org/2000/svg"
   xmlns="http://www.w3.org/2000/svg"
   xmlns:sodipodi="http://sodipodi.sourceforge.net/DTD/sodipodi-0.dtd"
   xmlns:inkscape="http://www.inkscape.org/namespaces/inkscape"
   width="210mm"
   height="297mm"
   viewBox="0 0 210 297"
   version="1.1"
   id="svg8"
   inkscape:version="0.92.4 (5da689c313, 2019-01-14)"
   sodipodi:docname="frame.svg"
   inkscape:export-filename="F:\Projects\quranku\public\assets\ayat.png"
   inkscape:export-xdpi="150"
   inkscape:export-ydpi="150">
  <defs
     id="defs2" />
  <sodipodi:namedview
     id="base"
     pagecolor="#ffffff"
     bordercolor="#666666"
     borderopacity="1.0"
     inkscape:pageopacity="0.0"
     inkscape:pageshadow="2"
     inkscape:zoom="0.98994949"
     inkscape:cx="676.77184"
     inkscape:cy="288.97862"
     inkscape:document-units="mm"
     inkscape:current-layer="layer1"
     showgrid="false"
     showguides="true"
     inkscape:guide-bbox="true"
     inkscape:window-width="1366"
     inkscape:window-height="715"
     inkscape:window-x="-8"
     inkscape:window-y="22"
     inkscape:window-maximized="1">
    <sodipodi:guide
       position="50.714392,179.33786"
       orientation="1,0"
       id="guide830"
       inkscape:locked="false" />
    <sodipodi:guide
       position="41.560409,153.14544"
       orientation="1,0"
       id="guide832"
       inkscape:locked="false" />
    <sodipodi:guide
       position="50.714391,187.08868"
       orientation="0,1"
       id="guide834"
       inkscape:locked="false" />
  </sodipodi:namedview>
  <metadata
     id="metadata5">
    <rdf:RDF>
      <cc:Work
         rdf:about="">
        <dc:format>image/svg+xml</dc:format>
        <dc:type
           rdf:resource="http://purl.org/dc/dcmitype/StillImage" />
        <dc:title></dc:title>
      </cc:Work>
    </rdf:RDF>
  </metadata>
  <g
     inkscape:label="Layer 1"
     inkscape:groupmode="layer"
     id="layer1">
    <path
       style="fill:#000000;stroke-width:1"
       d="m 154.57089,186.82042 c -3.25626,1.77627 -5.76768,4.45024 -6.83041,7.2725 -0.10012,0.26589 -0.28498,0.88003 -0.41079,1.36476 -0.30349,1.16923 -0.38114,2.97167 -0.18822,4.36903 0.21333,1.54521 0.96015,3.74891 1.71739,5.06764 0.16373,0.28515 0.29736,0.5581 0.29695,0.60656 -2.9e-4,0.0485 -0.15654,0.19582 -0.34694,0.32747 -1.02737,0.7103 -2.39149,2.20082 -2.82407,3.08573 -0.65051,1.33076 -0.40708,2.69293 0.66381,3.71438 0.75507,0.72021 1.56809,1.01494 2.57641,0.93397 0.87714,-0.0704 1.58517,-0.38814 2.12214,-0.95226 0.66123,-0.69466 0.8723,-1.29613 0.82755,-2.35825 -0.0288,-0.68444 -0.0482,-0.75467 -0.38928,-1.41128 -0.39875,-0.76762 -0.9402,-1.41104 -1.68849,-2.00648 l -0.49695,-0.39544 -0.15851,0.1585 -0.1585,0.1585 0.29693,0.35285 c 0.66107,0.78555 1.03165,1.3163 1.33232,1.90815 0.27359,0.53854 0.32095,0.70468 0.35155,1.23334 0.0269,0.46416 0.003,0.6972 -0.0978,0.96984 -0.55709,1.50077 -2.93727,1.86698 -4.00755,0.61661 -0.34977,-0.40863 -0.52059,-0.93357 -0.5244,-1.6115 -0.005,-0.83771 0.33249,-1.37705 0.98035,-1.56804 0.34817,-0.10264 0.63482,-0.0598 0.81663,0.122 0.17271,0.1727 0.14811,0.23506 -0.11335,0.28736 -0.51604,0.1032 -0.92819,0.84515 -0.75723,1.36316 0.12127,0.36746 0.50315,0.78593 0.80948,0.88702 0.45001,0.14852 1.04548,0.0592 1.37504,-0.20616 0.44047,-0.35471 0.62206,-0.73464 0.62353,-1.30455 0.002,-0.7061 -0.1276,-1.04907 -0.56582,-1.49944 -0.44144,-0.4537 -0.81836,-0.58968 -1.4982,-0.5405 -0.24024,0.0174 -0.4368,0.0248 -0.4368,0.0164 0,-0.008 0.24736,-0.21497 0.5497,-0.45915 2.14645,-1.73357 3.92636,-3.61211 4.50567,-4.75533 0.49089,-0.96872 0.66818,-2.07733 0.483,-3.02023 -0.0886,-0.45098 -0.57436,-1.98846 -0.8943,-2.83037 -0.49979,-1.31518 -0.66046,-2.96632 -0.37074,-3.80995 0.12352,-0.35968 0.79753,-1.2312 0.95218,-1.2312 0.03,0 0.10333,0.11089 0.16298,0.24642 0.0942,0.21398 0.15012,0.24944 0.42494,0.26945 0.69213,0.0504 1.1041,-0.75928 0.5935,-1.16642 -0.60846,-0.48517 -1.49743,-0.18804 -2.42055,0.80904 -0.76408,0.8253 -1.14037,1.93354 -1.09342,3.22031 l 0.0261,0.7156 -0.34638,-6e-5 c -0.79729,-1.5e-4 -1.65139,0.45083 -1.91803,1.01273 -0.29952,0.63122 -0.0966,1.38544 0.4767,1.77179 0.46965,0.31649 1.32171,0.19779 1.68732,-0.23506 0.3537,-0.41874 0.34716,-1.08362 -0.0145,-1.47178 -0.34026,-0.36523 0.33597,-0.0637 0.78858,0.35161 0.53478,0.49072 1.02779,1.51313 1.14306,2.37046 0.0656,0.48758 -0.13056,1.36378 -0.39149,1.74909 -0.29256,0.43202 -0.52929,0.58783 -0.97293,0.64037 l -0.37952,0.045 0.001,0.88239 c 10e-4,0.77505 -0.0202,0.92646 -0.17686,1.2446 -0.22105,0.4489 -0.64923,0.80197 -0.83313,0.68699 -0.0692,-0.0433 -0.27464,-0.37248 -0.45655,-0.73158 -0.37279,-0.73595 -0.49122,-1.44344 -0.31347,-1.87258 0.14039,-0.33892 0.63996,-0.73273 1.06901,-0.84269 0.39855,-0.10214 0.43642,-0.17556 0.26326,-0.51042 -0.13307,-0.25733 -0.41484,-0.39197 -0.93268,-0.44566 -0.42062,-0.0436 -0.42183,-0.045 -0.51045,-0.5702 l -0.048,-0.28458 -0.40455,0.0476 -0.40455,0.0476 -0.0962,-0.29158 c -0.14329,-0.43418 -0.12365,-2.12834 0.034,-2.93386 0.1787,-0.91295 0.58565,-2.06261 1.05037,-2.96732 0.97849,-1.90493 3.13396,-4.21444 5.33648,-5.71787 0.58983,-0.40261 0.62235,-0.44482 0.68283,-0.88603 l 0.0502,-0.36602 -0.59976,0.32717 z m 0.4932,54.25234 c -0.0482,-0.15984 -0.20955,-0.31966 -0.54286,-0.53764 -1.29078,-0.84418 -3.07757,-2.46686 -4.02802,-3.65808 -1.21861,-1.52731 -2.13113,-3.41569 -2.43552,-5.0401 -0.15457,-0.82488 -0.18169,-2.56278 -0.0462,-2.95861 l 0.0995,-0.29071 0.3835,0.0253 c 0.41445,0.0274 0.41343,0.0284 0.54043,-0.55169 0.0386,-0.17655 0.0894,-0.20334 0.46953,-0.24802 0.47573,-0.0559 0.68194,-0.14517 0.87846,-0.38025 0.24018,-0.28733 0.17869,-0.4725 -0.18753,-0.56471 -0.71606,-0.18031 -1.19053,-0.69997 -1.19053,-1.30393 0,-0.66405 0.61189,-2.12045 0.91519,-2.1783 0.2168,-0.0413 0.66231,0.42755 0.83144,0.87512 0.14002,0.3705 0.15938,0.54753 0.13148,1.20235 l -0.0327,0.76787 0.42311,0.0434 c 0.3773,0.0387 0.45746,0.0797 0.74043,0.37876 0.95543,1.00969 0.6857,3.12895 -0.55293,4.34438 -0.21768,0.21359 -0.50108,0.42506 -0.62978,0.46993 -0.2748,0.0958 -0.28346,0.0755 -0.0846,-0.19794 0.24364,-0.33507 0.26681,-0.75638 0.0634,-1.15318 -0.22276,-0.43459 -0.55,-0.60628 -1.15586,-0.60644 -0.53601,-1.5e-4 -0.85649,0.18214 -1.10846,0.63046 -0.24732,0.44004 -0.18781,1.15348 0.12898,1.54642 0.32911,0.40823 0.93057,0.69296 1.58744,0.75151 l 0.53682,0.0479 -0.0324,0.76747 c -0.0364,0.86105 0.0963,1.48626 0.48603,2.29017 0.28537,0.58865 1.08979,1.40921 1.62637,1.65899 0.7179,0.33418 1.38181,0.22819 1.58086,-0.25239 0.18295,-0.44166 -0.17754,-0.8704 -0.73789,-0.87759 -0.3337,-0.004 -0.3659,0.0128 -0.48852,0.25844 l -0.13126,0.26302 -0.41007,-0.42338 c -0.54221,-0.55979 -0.68867,-1.01379 -0.68128,-2.11189 0.006,-0.84084 0.20212,-1.78616 0.58347,-2.80741 1.05458,-2.8241 1.13672,-3.83773 0.433,-5.34324 -0.64706,-1.38429 -2.28461,-3.12847 -5.0079,-5.33398 l -0.18955,-0.15351 0.434,0.0436 c 0.58122,0.0584 1.04656,-0.0827 1.45319,-0.44067 0.45374,-0.3994 0.65129,-0.84625 0.66117,-1.49558 0.009,-0.56409 -0.10409,-0.87528 -0.45301,-1.25114 -0.29085,-0.3133 -0.55943,-0.42919 -0.99463,-0.42919 -0.48515,0 -0.82405,0.13995 -1.08239,0.44696 -0.5696,0.67693 -0.29577,1.73541 0.48298,1.86698 0.25508,0.0431 0.28349,0.0676 0.21874,0.18857 -0.11592,0.21659 -0.54085,0.3263 -0.89477,0.231 -0.68332,-0.184 -1.01337,-0.6967 -1.00882,-1.56715 0.004,-0.71976 0.10396,-1.08114 0.41165,-1.48454 0.31358,-0.41113 0.65266,-0.63961 1.17433,-0.79126 1.18108,-0.34335 2.56162,0.2385 2.94448,1.24099 0.18357,0.48067 0.10886,1.45793 -0.15562,2.03563 -0.28052,0.61273 -0.95382,1.59862 -1.36572,1.99975 -0.38909,0.37892 -0.41142,0.45219 -0.19697,0.64626 0.14565,0.13181 0.16089,0.12714 0.51179,-0.15682 0.99172,-0.80257 1.41094,-1.29829 1.88162,-2.225 0.25802,-0.50802 0.28958,-0.63498 0.32038,-1.28894 0.0432,-0.91734 -0.0943,-1.42329 -0.55831,-2.05353 -0.35563,-0.48309 -1.04079,-0.99121 -1.53934,-1.14158 -0.45397,-0.13693 -1.33973,-0.17227 -1.84629,-0.0737 -1.6489,0.32094 -2.8413,2.01756 -2.55866,3.64062 0.21614,1.24119 1.12386,2.3941 3.318,4.21428 l 0.18779,0.15578 -0.49871,0.98152 c -1.15067,2.26469 -1.64299,4.19706 -1.64089,6.44055 0.003,2.8698 0.96705,5.36775 2.95762,7.66098 1.21868,1.40397 2.61321,2.48843 4.71705,3.66821 l 0.43597,0.24449 -0.007,-0.21408 c -0.004,-0.11773 -0.0377,-0.31642 -0.0754,-0.44153 z m -6.62964,-27.10632 c -0.11203,-0.0426 -0.4304,-0.13366 -0.70749,-0.20236 -0.48119,-0.11931 -1.35952,-0.50724 -1.88885,-0.83424 -0.70982,-0.4385 -1.68482,-1.40773 -2.37125,-2.35722 -0.17792,-0.24611 -0.17821,-0.24984 -0.0386,-0.49283 0.14506,-0.25239 0.76836,-1.04766 1.15203,-1.46986 0.57101,-0.62838 1.98089,-1.54242 2.37913,-1.54242 0.13709,0 0.98398,-0.7303 0.98398,-0.84852 0,-0.18625 -1.51377,0.27111 -2.38833,0.72158 -0.72404,0.37295 -1.69873,1.29949 -2.26997,2.15784 l -0.36763,0.55241 -0.24987,-0.55241 c -0.76185,-1.6843 -0.96583,-3.7757 -0.52107,-5.34257 0.29757,-1.04834 1.5356,-1.54236 2.61243,-1.04245 0.37483,0.17401 0.83402,0.52317 0.83402,0.63418 0,0.0235 -0.23633,0.0427 -0.52518,0.0427 -0.62578,0 -0.86368,0.13674 -1.12391,0.64602 -0.33492,0.65547 -0.11258,1.40657 0.51179,1.72888 0.28266,0.14591 0.42318,0.17012 0.81912,0.14109 1.34839,-0.0988 1.96586,-1.33262 1.32206,-2.64163 -0.13726,-0.27908 -0.38637,-0.62829 -0.56026,-0.78539 l -0.31311,-0.28288 0.17089,-0.35079 c 0.48534,-0.99627 0.5614,-2.3209 0.19455,-3.388 -0.0899,-0.2615 -0.26803,-0.4512 -0.26878,-0.28624 -1.5e-4,0.0348 -0.0482,0.35857 -0.10684,0.71959 -0.16179,0.99665 -0.41469,1.45959 -1.06645,1.95209 -0.2094,0.15824 -0.52649,0.34405 -0.70464,0.41292 -0.17815,0.0689 -0.61432,0.26648 -0.96928,0.43912 -1.04867,0.51007 -1.59545,1.24888 -1.92817,2.60536 l -0.1673,0.68208 -0.65609,0.009 c -2.05847,0.0287 -3.51346,1.23413 -5.32687,4.41321 -0.25387,0.44507 -0.5804,1.01393 -0.72562,1.26413 -0.87073,1.50027 -1.75748,2.5408 -2.50783,2.94276 l -0.39805,0.21324 v -0.2948 c 0,-0.50102 -0.47277,-0.78994 -0.9597,-0.58649 l -0.25342,0.10588 v 1.06269 c 0,0.97304 0.0124,1.0693 0.14665,1.14116 0.188,0.10061 0.57978,0.10083 0.76739,5.8e-4 0.20412,-0.10925 0.3755,-0.4719 0.32117,-0.67965 -0.0455,-0.17402 -0.0448,-0.17392 0.35315,0.0426 0.8677,0.47227 1.66554,1.43035 2.71059,3.25504 1.38702,2.42179 2.00472,3.31048 2.84168,4.08836 0.93875,0.87249 1.91008,1.27324 3.1047,1.28093 l 0.59527,0.004 0.0441,0.27042 c 0.0896,0.55011 0.43884,1.49535 0.69591,1.88371 0.37877,0.57221 0.77374,0.86296 1.88438,1.38716 0.53831,0.25407 1.09263,0.54843 1.23182,0.65414 0.52293,0.39713 0.90359,1.2161 1.03071,2.21754 0.0236,0.1855 0.0724,0.36685 0.10855,0.403 0.10378,0.10379 0.31635,-0.52046 0.4064,-1.19343 0.10183,-0.7611 -0.0462,-1.77042 -0.351,-2.3933 l -0.20249,-0.4138 0.37338,-0.3975 c 1.06051,-1.12901 0.99864,-2.57285 -0.13485,-3.14709 -0.67132,-0.34009 -1.47684,-0.26275 -1.87249,0.17978 -0.53605,0.59959 -0.34859,1.6966 0.35232,2.06166 0.20204,0.10523 0.366,0.12771 0.69982,0.0959 0.23978,-0.0228 0.43597,-0.0143 0.43597,0.019 0,0.10899 -0.41011,0.44771 -0.7582,0.62623 -0.26948,0.13821 -0.46867,0.17581 -0.94775,0.17894 -0.53207,0.003 -0.651,-0.0222 -0.9684,-0.20874 -0.19901,-0.11698 -0.44095,-0.33875 -0.53766,-0.49282 -0.1993,-0.31757 -0.40049,-1.10531 -0.46851,-1.83445 -0.10274,-1.10137 0.25637,-2.95855 0.79041,-4.08778 l 0.21145,-0.44712 0.48102,0.68152 c 0.63729,0.90294 1.45922,1.64853 2.23555,2.02792 0.95828,0.46832 2.31251,0.87921 2.31251,0.70165 0,-0.16958 -0.72239,-0.77662 -1.01935,-0.85658 -0.75828,-0.20418 -1.57497,-0.75415 -2.39798,-1.6148 -0.51495,-0.53855 -1.20769,-1.45339 -1.20769,-1.59493 0,-0.18305 0.9009,-1.30708 1.43096,-1.78535 1.01772,-0.91831 1.81296,-1.36439 3.07512,-1.72497 0.41415,-0.11832 0.76664,-0.25606 0.78332,-0.30609 0.0167,-0.05 -0.0613,-0.12582 -0.17337,-0.16842 z m -1.39699,0.25665 c -0.59709,0.0955 -1.56947,0.44608 -2.20015,0.79328 -0.61557,0.33889 -1.60776,1.20817 -2.03923,1.78663 -0.0903,0.12104 -0.17446,0.20634 -0.18704,0.18955 -0.8719,-1.16376 -1.63025,-1.87808 -2.36333,-2.22613 -0.75847,-0.36011 -1.23243,-0.4514 -2.16087,-0.41621 -1.89915,0.072 -4.01845,-0.0501 -4.01845,-0.23144 0,-0.15266 1.38632,-0.26476 3.06253,-0.24765 2.06867,0.0211 2.54274,-0.0516 3.3113,-0.50824 0.62952,-0.37399 1.19115,-0.88585 1.7389,-1.58477 0.22936,-0.29266 0.43753,-0.52547 0.46262,-0.51735 0.0251,0.008 0.19768,0.20242 0.38357,0.43177 0.54808,0.67626 1.31529,1.27393 2.1487,1.67388 0.69671,0.33434 1.76082,0.67654 2.1038,0.67654 0.24734,0 0.0728,0.12975 -0.24235,0.18014 z m -5.19495,-2.94773 c -0.49745,0.66096 -1.28838,1.40147 -1.81633,1.70053 -0.84206,0.477 -1.91933,0.58745 -2.48835,0.25512 -0.72354,-0.42257 -0.88,-1.59484 -0.28022,-2.09952 0.23923,-0.2013 0.79552,-0.40779 0.87756,-0.32574 0.026,0.026 -0.0115,0.17129 -0.0834,0.32279 -0.17318,0.36494 -0.10283,0.71487 0.21051,1.0471 0.59056,0.62618 1.68635,0.47167 2.03059,-0.28632 0.24794,-0.54593 0.17671,-0.98679 -0.22422,-1.38772 l -0.23015,-0.23015 0.3031,-0.13668 c 0.38455,-0.1734 0.71742,-0.55076 0.83653,-0.94833 0.0759,-0.25328 0.0726,-0.38742 -0.0179,-0.73498 -0.11292,-0.43354 -0.29553,-0.62941 -0.29553,-0.31698 0,0.21811 -0.3257,0.64538 -0.60014,0.7873 -0.11725,0.0606 -0.56757,0.19678 -1.00069,0.30254 -0.93414,0.22809 -2.03561,0.74671 -2.43574,1.14684 -0.40938,0.40937 -0.61379,0.87694 -0.60739,1.38931 0.003,0.23369 0.0395,0.51304 0.0813,0.62077 0.0735,0.18948 0.0632,0.19907 -0.31541,0.29338 -0.83441,0.20784 -2.09415,1.07238 -2.09627,1.43863 -0.002,0.3464 1.097,1.13461 1.9292,1.38363 0.29364,0.0879 0.53962,0.1635 0.54662,0.16808 0.007,0.005 -0.0342,0.18941 -0.0917,0.41075 -0.33372,1.28652 0.80707,2.42437 2.90713,2.89965 0.40443,0.0915 0.86129,0.23009 1.01525,0.30791 0.30204,0.15267 0.66782,0.57502 0.66782,0.77109 0,0.0666 0.0328,0.14134 0.0729,0.16612 0.11008,0.068 0.32927,-0.7743 0.28019,-1.07676 -0.0551,-0.3396 -0.35919,-0.73381 -0.75721,-0.98165 -0.40368,-0.25137 -0.40306,-0.25073 -0.30466,-0.31329 0.20548,-0.13064 0.48121,-0.65739 0.47964,-0.9163 -0.002,-0.37449 -0.23758,-0.86229 -0.50927,-1.05575 -0.95947,-0.6832 -2.40419,0.32557 -1.84866,1.29083 0.15851,0.27542 0.15936,0.28729 0.0207,0.28729 -0.2304,0 -0.71374,-0.22452 -0.93738,-0.43543 -0.27503,-0.25938 -0.33999,-0.70916 -0.18127,-1.25515 0.17399,-0.59847 0.4911,-0.85798 1.13236,-0.92665 0.65607,-0.0703 1.04056,0.002 1.71863,0.32239 0.45163,0.21349 0.71027,0.41096 1.25687,0.95959 0.37852,0.37993 0.80007,0.85568 0.93678,1.05723 l 0.24855,0.36645 -0.34003,0.73294 c -0.35545,0.76619 -0.62936,1.56765 -0.85295,2.49575 l -0.13243,0.54969 h -0.47884 c -0.69219,0 -1.20014,-0.12405 -1.89525,-0.46288 -1.11502,-0.54351 -1.68843,-1.11735 -3.44324,-3.44586 -1.24554,-1.65274 -2.09135,-2.55778 -2.957,-3.16411 l -0.18411,-0.12895 0.17556,-0.13323 c 1.14905,-0.87202 1.64308,-1.40545 3.07428,-3.31942 1.48402,-1.98461 2.2588,-2.76112 3.2417,-3.24892 0.54537,-0.27066 0.88915,-0.38592 1.3969,-0.46834 1.10052,-0.17863 1.03792,-0.20364 1.19577,0.47771 0.20121,0.86852 0.54554,1.87294 0.87724,2.55892 0.16131,0.33361 0.29625,0.63617 0.29986,0.67235 0.004,0.0362 -0.17992,0.31358 -0.40785,0.61643 z"
       id="path855"
       inkscape:connector-curvature="0"
       inkscape:export-xdpi="150"
       inkscape:export-ydpi="150" />
  </g>
</svg>
